<?xml version="1.0" encoding="UTF-8"?><svg id="Laag_1" xmlns="http://www.w3.org/2000/svg" viewBox="0 0 489.85 90.02"><path d="m191.5,1.46h-38.64l-15.11,21.17h53.75c15.65,0,25.37,8.24,25.37,21.51,0,14.99-9.01,23.24-25.37,23.24h-30.96v-31.83h-23.73v53h54.69c27.99,0,49.1-19.09,49.1-44.41S220.4,1.46,191.5,1.46Z" fill="#1d1d1b" stroke-width="0"/><path d="m328.62,36.22h-45.38c-5.86,0-8.83-2.31-8.83-6.86s2.97-6.73,8.83-6.73h57.66l15.11-21.17h-70.78c-22.92,0-34.06,8.69-34.06,26.57,0,16.37,11.28,25.77,30.95,25.77h45c5.94,0,8.83,2.24,8.83,6.86s-2.81,6.73-8.58,6.73h-63.13l-15.11,21.17h77.49c22.52,0,32.56-8.48,32.56-27.5,0-16.25-10.57-24.83-30.58-24.83Z" fill="#1d1d1b" stroke-width="0"/><path d="m429.94,0c-40.71,0-59.67,14.28-59.67,44.94s18.96,45.08,59.67,45.08,59.91-14.32,59.91-45.08S470.82,0,429.94,0Zm0,68.85c-28.31,0-36.06-5.14-36.06-23.9s7.75-23.77,36.06-23.77,36.18,5.11,36.18,23.77-7.78,23.9-36.18,23.9Z" fill="#1d1d1b" stroke-width="0"/><polygon points="106.88 1.46 67.17 62.91 28.21 1.46 0 1.46 55.24 88.49 77.51 88.49 134.57 1.46 106.88 1.46" fill="#1d1d1b" stroke-width="0"/></svg>